<svg id="Capa_1" data-name="Capa 1" xmlns="http://www.w3.org/2000/svg" viewBox="0 0 331.29 331.29"><defs><style>.cls-1{fill:#fff;}.cls-2,.cls-3{fill:#5b6a73;}.cls-3{font-size:32.25px;font-family:Helvetica-Bold, Helvetica;font-weight:700;}</style></defs><rect class="cls-1" x="10" y="10" width="311.29" height="311.29" rx="12"/><path class="cls-2" d="M309.29,331.29H22a22,22,0,0,1-22-22V22A22,22,0,0,1,22,0H309.29a22,22,0,0,1,22,22V309.29A22,22,0,0,1,309.29,331.29ZM22,20a2,2,0,0,0-2,2V309.29a2,2,0,0,0,2,2H309.29a2,2,0,0,0,2-2V22a2,2,0,0,0-2-2Z"/><text class="cls-3" transform="translate(114.59 252.16)">ABRIR<tspan x="-45.68" y="38.7">CONTENIDO</tspan></text><path class="cls-2" d="M54,207c-1.54-31.47-1.17-62.18,14.41-90.39C87.43,82.08,115.2,59.46,155.94,59.2c40.48-.27,68.51,21.8,87.76,55.92,4.78,8.46,7.88,17.88,11.75,26.86l-2.68,1.42c-1.33-2.11-3.17-4.05-3.94-6.35A120.79,120.79,0,0,0,216.06,86c-19.32-18-41.18-22.31-65.86-13.85a9.53,9.53,0,0,0-4.7,3.73c-3.19.81-6.71,1-9.53,2.53-15.89,8.54-28.15,21-37.26,36.45-1.22,2.06-.81,5.09-1.09,7.18-2,2.18-4.94,4.2-6.18,7-8,18-10.71,37-9.61,57.43l19,3.3-.09.86H82v12.52H192.15c-.09-16.08.14-32.54,12-45.51,3.13-3.41,7.16-6,11.33-8.44C198.36,165,197.51,185.6,198,207Z"/><path class="cls-2" d="M279.65,207.13H203.44c-5.6-16.13,1.87-43.17,14.82-53.64,18.62-15.05,46-8.18,56.48,14.09C280.58,180,280.18,193.14,279.65,207.13Zm-63.89-4h50.62c.59-10.93.63-21.23-4.28-30.81-4.25-8.29-10.94-13.06-20.44-13.27-9.77-.21-16.84,4.31-21.3,12.87C215.29,181.62,215.11,192.08,215.76,203.11Z"/><path class="cls-2" d="M219.91,200.42c-.53-10.91-.95-21.38,5.57-30.59,6.2-8.75,13.62-8.65,19.91.07,5.18,7.18,7.23,19.8,4.84,30.52Z"/></svg>