<svg id="Capa_1" data-name="Capa 1" xmlns="http://www.w3.org/2000/svg" viewBox="0 0 331.29 331.29"><defs><style>.cls-1{fill:#fff;}.cls-2{fill:#5b6a73;}</style></defs><rect class="cls-1" x="10" y="10" width="311.29" height="311.29" rx="12"/><path class="cls-2" d="M309.29,331.29H22a22,22,0,0,1-22-22V22A22,22,0,0,1,22,0H309.29a22,22,0,0,1,22,22V309.29A22,22,0,0,1,309.29,331.29ZM22,20a2,2,0,0,0-2,2V309.29a2,2,0,0,0,2,2H309.29a2,2,0,0,0,2-2V22a2,2,0,0,0-2-2Z"/><path class="cls-2" d="M201.21,121.73l7.06-18.29c1.52-4,4.23-6.55,8.55-7,7.14-.67,12.73,5.9,10.36,12.67-3.4,9.71-7.22,19.28-11.13,28.79-1.85,4.49-6.8,6.34-12,5.05-3.9-1-7.78-2.05-12.23-3.22.82,5.42,1.45,10.47,2.37,15.47,3.3,18,8.6,35.56,14,53.06,1.05,3.4.94,3.9-1.89,6.14-.95.75-2,1.37-2.68,1.85,1.48,7.38,3.43,14.48,4.21,21.72a208.34,208.34,0,0,1,.94,25.12c-.09,6.28-4.06,9.52-10.06,9.3a10.62,10.62,0,0,1-10.57-10.24c-.12-4.57.11-9.16-.07-13.73a95.65,95.65,0,0,0-5.54-28.19,3.42,3.42,0,0,0-2.16-1.8c-7.15-1.52-14.35-2.81-21.49-4.4-1.79-.39-2.71-.1-3.79,1.33q-15.62,20.64-31.35,41.19c-3.78,4.95-8.53,6.37-13.64,4.16-6.63-2.87-8.51-9.39-4.21-15.17,4.64-6.25,9.47-12.36,14.2-18.55s9.51-12.52,14.26-18.79c.36-.48.67-1,1-1.53l-13.83-6.13c.53-1,.93-1.8,1.35-2.58,9.67-17.76,18.92-35.71,25.52-54.9,1.89-5.51,3.62-11.05,2.66-17a7.13,7.13,0,0,0-1.15-3.34c-5.43-6.5-10.77-13.09-16.54-19.28-8.59-9.22-17.51-18.12-26.28-27.17-4.41-4.55-4.6-10.66-.48-14.68a9.85,9.85,0,0,1,12.6-1A13.07,13.07,0,0,1,120.79,62c15.89,15.65,31.79,31.29,45.17,49.24a4.68,4.68,0,0,0,2.26,1.72C179.1,115.9,190,118.76,201.21,121.73Z"/><path class="cls-2" d="M161.74,88.92C162,77.61,171.26,68.65,182.28,69s20,9.47,19.79,20.27a20.27,20.27,0,0,1-20.7,20C170.33,108.94,161.46,99.73,161.74,88.92Z"/></svg>