<svg id="Capa_1" data-name="Capa 1" xmlns="http://www.w3.org/2000/svg" viewBox="0 0 331.29 331.29"><defs><style>.cls-1{fill:#fff;}.cls-2{fill:#5b6a73;}</style></defs><rect class="cls-1" x="10" y="10" width="311.29" height="311.29" rx="12"/><path class="cls-2" d="M309.29,331.29H22a22,22,0,0,1-22-22V22A22,22,0,0,1,22,0H309.29a22,22,0,0,1,22,22V309.29A22,22,0,0,1,309.29,331.29ZM22,20a2,2,0,0,0-2,2V309.29a2,2,0,0,0,2,2H309.29a2,2,0,0,0,2-2V22a2,2,0,0,0-2-2Z"/><path class="cls-2" d="M201.88,136.35c-10.31-3.2-19.74-1.76-28,5.28a59.77,59.77,0,0,0-7,7.55c-4.84,5.88-12,6.9-17.41,2.32-4-3.39-4.8-8.33-1.67-12.65,7.56-10.45,16.84-18.83,29.32-23,10.9-3.64,22-3.67,32.56.58,8.47,3.41,16.52,7.92,24.65,12.14,8.51,4.4,17.25,6.28,26.52,2.91,6.69-2.44,11.62-7.18,15.85-12.79,4.11-5.45,9.44-6.63,15.42-3.57,5.12,2.62,7,8.59,3.79,13.3-9.47,13.86-21.94,23.42-39,25.74a45.73,45.73,0,0,1-19.68-1.49c-1.48-.45-2.24-.4-3.05,1.09-6.49,11.9-13.06,23.76-19.71,35.81,3.68,2.29,7.25,4.3,10.59,6.64,5.56,3.89,11.22,7.71,16.38,12.1,6.15,5.23,9.34,12.64,12.8,19.73s6.62,14.11,9.85,21.21c2.39,5.27.53,10.43-4.68,13.29s-11.27,1.67-14-3.29c-3.31-6.09-5.89-12.56-9.06-18.73-2.78-5.39-5.36-11-9.1-15.73-2.91-3.64-7.24-6.35-11.34-8.78-7.21-4.28-14.75-8-22.13-12-1.52-.83-2.39-.34-3.47.85-13.22,14.5-29.6,20.71-49.07,18.21A46.53,46.53,0,0,1,122.17,216c-3.63-2.31-5.51-5.59-4.89-10,.7-5,3.54-8.21,8.34-9.76,3.5-1.14,6.64,0,9.63,1.56,12.08,6.51,22.85,3.55,32.86-4.54a45.34,45.34,0,0,0,11.61-14.38C187.1,164.8,194.39,150.72,201.88,136.35Z"/><path class="cls-2" d="M221,102.84a21.11,21.11,0,0,1,21.25-21,21.21,21.21,0,0,1,.05,42.42A21.11,21.11,0,0,1,221,102.84Z"/><path class="cls-2" d="M82.36,130.08h28.39c3.78,0,7.57,0,11.36,0,2.66,0,4.59,1.54,4.71,3.76.12,2.4-1.4,4-4.25,4.06-8.43.09-16.86,0-25.3,0-7.74,0-15.49.13-23.24.14S58.71,138,51,138c-2.84,0-5.68.08-8.52.12s-5.13-1.61-5.19-3.89,1.91-4,4.79-4c8.25-.09,16.51-.07,24.76-.09,5.16,0,10.32,0,15.48,0Z"/><path class="cls-2" d="M108.11,181.87H69.36c-1,0-2.31.25-3-.24-1.23-.85-2.82-2.14-2.92-3.35s1.23-2.79,2.34-3.76c.7-.61,2.12-.51,3.22-.51q39,0,78,0a12,12,0,0,1,1.8.06c2.49.36,4,1.88,3.94,4,0,2.28-1.59,3.8-4.26,3.83-6,.07-12,0-18.08,0Z"/><path class="cls-2" d="M155.42,92.19H195c3.23,0,4.92,1.37,4.9,3.91s-1.8,3.87-5,3.87q-39.71,0-79.4,0c-1.93,0-3.67-.32-4.56-2.21-1.29-2.74.65-5.52,3.92-5.56,5.52-.07,11,0,16.55,0Z"/><path class="cls-2" d="M73.36,230.92q-17.83,0-35.67,0c-3.15,0-5-1.47-5-3.93s1.82-3.88,5.09-3.88q35.55,0,71.1,0c2.29,0,4.07.63,4.82,3a3.33,3.33,0,0,1-1.71,4.16,6,6,0,0,1-2.94.59c-11.89,0-23.78,0-35.68,0Z"/></svg>