<svg id="Capa_1" data-name="Capa 1" xmlns="http://www.w3.org/2000/svg" viewBox="0 0 331.29 331.29"><defs><style>.cls-1{fill:#fff;}.cls-2{fill:#5b6a73;}</style></defs><rect class="cls-1" x="10" y="10" width="311.29" height="311.29" rx="12"/><path class="cls-2" d="M309.29,331.29H22a22,22,0,0,1-22-22V22A22,22,0,0,1,22,0H309.29a22,22,0,0,1,22,22V309.29A22,22,0,0,1,309.29,331.29ZM22,20a2,2,0,0,0-2,2V309.29a2,2,0,0,0,2,2H309.29a2,2,0,0,0,2-2V22a2,2,0,0,0-2-2Z" transform="translate(0)"/><path class="cls-2" d="M123.31,80h1.52a3.59,3.59,0,0,0,1,.56Q164.59,88.31,203.41,96c9,1.79,18,3.65,27.08,5.51V106c0,17.73.06,35.46-.06,53.18a6.51,6.51,0,0,0,2.82,6,45.68,45.68,0,0,1,16.16,22.86c1.07,3.19,1.64,6.55,2.43,9.83v9.89a15.56,15.56,0,0,0-.65,2.15c-4.44,27.55-29.57,45.42-56.69,40.3a48,48,0,0,1-38.74-47c-.08-23.27,16.08-43.09,38.76-47.21,4.67-.85,9.5-.83,14.41-1.22v-32L144.72,112v4.84c0,27,.06,54,0,81a31.62,31.62,0,0,1-36.77,31.35C93.28,227,82.85,215.94,80.86,200.57c-1.69-13,6.61-26.88,19.32-32.34,7.51-3.22,15.2-3.11,23.32-.91v-4.43q0-29.08,0-58.17C123.48,96.48,123.37,88.25,123.31,80ZM240.44,203a36.92,36.92,0,0,0-36.52-36.95c-20-.17-37.09,16.76-37.14,36.89a36.94,36.94,0,0,0,36.71,36.77A36.57,36.57,0,0,0,240.44,203Z" transform="translate(0)"/><path class="cls-2" d="M230.35,198.07v10H177.41v-10Z" transform="translate(0)"/></svg>