<svg id="Capa_1" data-name="Capa 1" xmlns="http://www.w3.org/2000/svg" viewBox="0 0 331.29 331.29"><defs><style>.cls-1{fill:#fff;}.cls-2{fill:#5b6a73;}</style></defs><rect class="cls-1" x="10" y="10" width="311.29" height="311.29" rx="12"/><path class="cls-2" d="M309.29,331.29H22a22,22,0,0,1-22-22V22A22,22,0,0,1,22,0H309.29a22,22,0,0,1,22,22V309.29A22,22,0,0,1,309.29,331.29ZM22,20a2,2,0,0,0-2,2V309.29a2,2,0,0,0,2,2H309.29a2,2,0,0,0,2-2V22a2,2,0,0,0-2-2Z"/><path class="cls-2" d="M167.34,55.48c1.31.31,2.64.53,3.92.93a19.36,19.36,0,1,1-9.28-.65c.44-.08.87-.18,1.3-.28Z"/><path class="cls-2" d="M154.14,100.29c2.87-2.2,5.87-4.24,9.63-4.19a89,89,0,0,1,9.06.73c4.5.53,7.71,3.22,10.67,6.61l5.52-2.1C202.84,96,216.53,90.41,230,84.17a11.83,11.83,0,0,1,16.68,10.92c-.1,4.3-2.5,7.16-6.3,8.81q-16.54,7.18-33.17,14.22c-4.69,2-9.48,3.74-14.23,5.6l-.85.37c2.18,5.07,4.32,10.1,6.47,15.13,1.83,4.28,3.8,8.49,5.42,12.85a51,51,0,0,1,2.19,8.57,8.28,8.28,0,0,1-.41,3.87c-3.82,11.51-5,23.37-4.86,35.41.13,13.47,1.78,26.71,6.07,39.54.43,1.28.88,2.56,1.41,3.8,3.09,7.23-1.43,12.47-7.61,13.71a12.43,12.43,0,0,1-14.7-8,114.36,114.36,0,0,1-6.34-24.55A170.15,170.15,0,0,1,178,192.51c.08-2.77.32-5.53.49-8.31-3.51.57-20.41,12.06-24.49,16.67l9.4,5.81c.6.37,1.23.71,1.84,1.08a10.71,10.71,0,0,1,5.07,12.65c-1.54,5.66-6.68,9.81-12.07,9.44a13.3,13.3,0,0,1-5.33-1.56,131.08,131.08,0,0,1-25.26-18.15,12.45,12.45,0,0,1,.2-18.32c7.91-6.94,15.7-14,24.44-19.89,3.92-2.64,8-5,12.06-7.44.32-.2.65-.37,1.08-.62-.32-.74-.62-1.45-.93-2.16Q156.89,144.34,149.3,127a4.88,4.88,0,0,0-2-2.38q-15.54-10-30.87-20.24A62.49,62.49,0,0,1,103.53,93.2a11.44,11.44,0,0,1,6.54-18.89,10.28,10.28,0,0,1,9.85,2.94c5,5.39,11,9.44,17.15,13.23,5.4,3.31,11,6.36,16.46,9.52C153.72,100.11,153.93,100.19,154.14,100.29Z"/><path class="cls-2" d="M187.44,269.81c1.33-.82,2.51-1.61,3.75-2.28,2.75-1.47,5.61-2.5,8.82-2a8.76,8.76,0,0,1,5,2.51,12,12,0,0,1,.84,1c.28-1.27.44-2.3.74-3.28,1.42-4.49,4.4-7.23,9.11-7.93a22.72,22.72,0,0,1,9.75,1l-.43,1.49c-2.06-.29-4-.64-6-.83a12.19,12.19,0,0,0-3.25.14c-4.45.78-7.31,3.78-7.81,8.52a73.58,73.58,0,0,0-.05,7.72c-.12-.2-.3-.46-.44-.73-.6-1.08-1.16-2.19-1.77-3.26-2.43-4.24-5.91-5.58-10.57-4.07a23.82,23.82,0,0,0-8.24,4.94c-.45.39-.88.8-1.65,1.51,2-12.39-3.7-18.67-15.38-20.38l.12-1.66c4.82.46,9.11,1.93,12.64,5.18S187.51,264.92,187.44,269.81Z"/></svg>