<?xml version="1.0" encoding="utf-8"?>
<!-- Generator: Adobe Illustrator 24.1.0, SVG Export Plug-In . SVG Version: 6.00 Build 0)  -->
<svg version="1.1" id="Capa_1" xmlns="http://www.w3.org/2000/svg" xmlns:xlink="http://www.w3.org/1999/xlink" x="0px" y="0px"
	 viewBox="0 0 196.5 205.3" style="enable-background:new 0 0 196.5 205.3;" xml:space="preserve">
<style type="text/css">
	.st0{fill:#FFFFFF;}
</style>
<g>
	<path class="st0" d="M49.7,62.1c-7.9,0-14.4,6.4-14.4,14.4s6.4,14.4,14.4,14.4c7.9,0,14.4-6.4,14.4-14.4c0,0,0,0,0,0
		C64.1,68.5,57.7,62.1,49.7,62.1z M49.7,82.8c-3.5,0-6.3-2.8-6.4-6.3c0-3.5,2.8-6.3,6.3-6.4c3.5,0,6.3,2.8,6.4,6.3c0,0,0,0,0,0
		C56.1,79.9,53.2,82.8,49.7,82.8z"/>
	<path class="st0" d="M49.7,138.3c-7.9,0-14.4,6.4-14.4,14.4S41.8,167,49.7,167s14.4-6.4,14.4-14.4c0,0,0,0,0,0
		C64.1,144.7,57.7,138.3,49.7,138.3z M49.7,159c-3.5,0-6.3-2.8-6.4-6.3s2.8-6.3,6.3-6.4c3.5,0,6.3,2.8,6.4,6.3c0,0,0,0,0,0
		C56.1,156.1,53.2,159,49.7,159z"/>
	<path class="st0" d="M49.7,100.2c-7.9,0-14.4,6.4-14.4,14.4c0,7.9,6.4,14.4,14.4,14.4c7.9,0,14.4-6.4,14.4-14.3c0,0,0,0,0,0
		C64.1,106.6,57.7,100.2,49.7,100.2z M49.7,120.9c-3.5,0-6.3-2.8-6.3-6.3s2.8-6.3,6.3-6.3c3.5,0,6.3,2.8,6.3,6.3c0,0,0,0,0,0
		C56.1,118,53.2,120.9,49.7,120.9z"/>
	<path class="st0" d="M116,72.4H75.4c-2.2,0-4,1.8-4,4s1.8,4,4,4H116c2.2,0,4-1.8,4-4S118.2,72.4,116,72.4L116,72.4z"/>
	<path class="st0" d="M196.5,133.3c0-23.3-17.7-42.8-40.9-44.9V32.9c0-6.8-5.5-12.4-12.4-12.4H99.1C98.7,8.7,88.8-0.4,77,0
		C65.9,0.4,56.9,9.4,56.5,20.5H12.4C5.5,20.5,0,26,0,32.9V193c0,6.8,5.5,12.4,12.4,12.4h130.9c6.7,0,12.4-5.3,12.4-11.6v-15.5
		C178.8,176.1,196.5,156.6,196.5,133.3z M147.6,32.9v55.6c-3.4,0.3-6.7,1-9.9,2v-48c0-2.2-1.8-4-4-4h-15.4v-9.9h25
		C145.7,28.5,147.6,30.5,147.6,32.9z M112.9,110.5H75.4c-2.2,0-4,1.8-4,4s1.8,4,4,4h33.8c-3.4,9.8-3.3,20.4,0.2,30.1H75.5
		c-2.2,0-4,1.8-4,4s1.8,4,4,4h37.8c4,6.7,9.7,12.2,16.5,16v6.7H26V46.4h103.7V94C122.7,97.9,116.9,103.6,112.9,110.5z M60.8,28.5
		c2.2,0,4-1.8,4-4c0-0.3,0-0.5-0.1-0.8c-0.2-0.8-0.2-1.7-0.2-2.5c0-7.3,6-13.3,13.3-13.3c7.3,0,13.3,5.9,13.3,13.3
		c0,0.8-0.1,1.7-0.2,2.5c-0.2,1.2,0.1,2.4,0.9,3.3c0.8,0.9,1.9,1.5,3.1,1.5h15.5v9.9H45.4v-9.9L60.8,28.5z M143.2,197.3H12.4
		c-2.4,0-4.3-1.9-4.3-4.3V32.9c0-2.4,1.9-4.3,4.3-4.3h25v9.9H22c-2.2,0-4,1.8-4,4v140.9c0,2.2,1.8,4,4,4h111.7c2.2,0,4-1.8,4-4v-7.2
		c3.2,1.1,6.6,1.7,9.9,2v15.5C147.6,195.3,145.7,197.3,143.2,197.3L143.2,197.3z M151.6,170.4c-20.4,0.1-37.1-16.4-37.1-36.9
		c-0.1-20.4,16.4-37.1,36.9-37.1c20.4-0.1,37.1,16.4,37.1,36.9c0,0,0,0.1,0,0.1C188.5,153.7,172,170.3,151.6,170.4L151.6,170.4z"/>
	<path class="st0" d="M159.1,131.2h-3.5v-8.5c0-2.2-1.8-4-4-4s-4,1.8-4,4v12.5c0,2.2,1.8,4,4,4h7.5c2.2,0,4-1.8,4-4
		S161.3,131.2,159.1,131.2L159.1,131.2z"/>
</g>
</svg>
