<svg id="Capa_1" data-name="Capa 1" xmlns="http://www.w3.org/2000/svg" viewBox="0 0 717.37 581.35"><defs><style>.cls-1,.cls-2{fill:#fff;}.cls-1{stroke:#fff;stroke-miterlimit:10;opacity:0.3;}</style></defs><rect class="cls-1" x="0.5" y="0.5" width="716.37" height="580.35" rx="12"/><path class="cls-2" d="M332.84,180.65A14.36,14.36,0,1,0,347.19,195,14.37,14.37,0,0,0,332.84,180.65Zm0,20.69a6.34,6.34,0,1,1,6.33-6.34A6.34,6.34,0,0,1,332.84,201.34Z"/><path class="cls-2" d="M332.84,256.84a14.36,14.36,0,1,0,14.35,14.36A14.37,14.37,0,0,0,332.84,256.84Zm0,20.69a6.34,6.34,0,1,1,6.33-6.33A6.34,6.34,0,0,1,332.84,277.53Z"/><path class="cls-2" d="M332.84,218.74a14.36,14.36,0,1,0,14.35,14.36,14.37,14.37,0,0,0-14.35-14.36Zm0,20.69a6.33,6.33,0,1,1,6.33-6.33,6.34,6.34,0,0,1-6.33,6.33Z"/><path class="cls-2" d="M399.14,191H358.55a4,4,0,1,0,0,8h40.59a4,4,0,0,0,0-8Z"/><path class="cls-2" d="M479.63,251.91A45.06,45.06,0,0,0,438.74,207V151.44a12.37,12.37,0,0,0-12.36-12.36H382.21a21.31,21.31,0,0,0-42.59,0H295.46a12.37,12.37,0,0,0-12.36,12.36V311.52a12.37,12.37,0,0,0,12.36,12.36H426.38c6.7,0,12.36-5.32,12.36-11.61V296.79a45.07,45.07,0,0,0,40.89-44.88ZM430.72,151.44V207a44.31,44.31,0,0,0-9.94,2V161a4,4,0,0,0-4-4H401.4V147.1h25A4.34,4.34,0,0,1,430.72,151.44ZM396,229.09H358.55a4,4,0,1,0,0,8h33.77a45.22,45.22,0,0,0,.17,30.08H358.56a4,4,0,1,0,0,8h37.75a45.4,45.4,0,0,0,16.45,16v6.73H309.08V165H412.76v47.58A45.26,45.26,0,0,0,396,229.09Zm-52.1-82a4,4,0,0,0,3.94-4.77,13.1,13.1,0,0,1-.24-2.51,13.29,13.29,0,0,1,26.58,0,13.1,13.1,0,0,1-.24,2.51,4,4,0,0,0,.85,3.31,4,4,0,0,0,3.09,1.46h15.47V157H328.46V147.1Zm82.45,168.76H295.46a4.35,4.35,0,0,1-4.34-4.34V151.44a4.34,4.34,0,0,1,4.34-4.34h25V157H305.06a4,4,0,0,0-4,4v140.9a4,4,0,0,0,4,4H416.77a4,4,0,0,0,4-4v-7.19a44.88,44.88,0,0,0,9.94,2.05v15.48c0,1.63-1.94,3.59-4.34,3.59Zm8.35-26.92a37,37,0,1,1,36.87-37A37,37,0,0,1,434.73,288.94Z"/><path class="cls-2" d="M442.21,249.77h-3.47v-8.5a4,4,0,1,0-8,0v12.51a4,4,0,0,0,4,4h7.48a4,4,0,0,0,0-8Z"/><path class="cls-2" d="M181.61,384l7.21,21.38L196,384h3.81l-9.16,25.11H187L177.85,384Z"/><path class="cls-2" d="M211.94,391.35a6.92,6.92,0,0,1,2.77,2.37,8.14,8.14,0,0,1,1.22,3.23,20.3,20.3,0,0,1,.28,4H202.89a8,8,0,0,0,1.31,4.48,4.33,4.33,0,0,0,3.78,1.69,4.86,4.86,0,0,0,3.82-1.6,5.36,5.36,0,0,0,1.12-2.14h3a6.34,6.34,0,0,1-.8,2.24,8,8,0,0,1-1.5,2,7.16,7.16,0,0,1-3.44,1.85,10.58,10.58,0,0,1-2.5.27,7.62,7.62,0,0,1-5.75-2.49,9.69,9.69,0,0,1-2.37-7,10.58,10.58,0,0,1,2.38-7.16,7.82,7.82,0,0,1,6.22-2.75A8.23,8.23,0,0,1,211.94,391.35Zm1.1,7.19a8,8,0,0,0-.86-3.2,4.43,4.43,0,0,0-4.19-2.22,4.61,4.61,0,0,0-3.52,1.53,5.81,5.81,0,0,0-1.51,3.89Z"/><path class="cls-2" d="M220.19,390.85h2.92V394a7,7,0,0,1,1.76-2.25,4.58,4.58,0,0,1,3.23-1.32h.29l.7.07v3.25a3.32,3.32,0,0,0-.5-.07l-.51,0a4.38,4.38,0,0,0-3.57,1.5,5.22,5.22,0,0,0-1.24,3.44v10.53h-3.08Z"/><path class="cls-2" d="M247.27,384h3.85l9.11,25.11H256.5L254,401.63H244l-2.72,7.52h-3.49Zm5.59,14.82-3.81-11.09L245,398.86Z"/><path class="cls-2" d="M273.09,391.58a8.45,8.45,0,0,1,1.77,1.74V391h2.84v16.64a12.35,12.35,0,0,1-1,5.51q-1.91,3.72-7.2,3.72a8.84,8.84,0,0,1-5-1.32,5.19,5.19,0,0,1-2.25-4.15h3.13a3.51,3.51,0,0,0,.88,1.9,4.53,4.53,0,0,0,3.27,1c2.34,0,3.88-.83,4.6-2.49a14.21,14.21,0,0,0,.6-5.25,6,6,0,0,1-2.21,2.09,7.47,7.47,0,0,1-3.43.68,7.27,7.27,0,0,1-5.18-2.11c-1.48-1.41-2.22-3.73-2.22-7,0-3.07.74-5.46,2.24-7.18a6.9,6.9,0,0,1,5.4-2.58A6.7,6.7,0,0,1,273.09,391.58Zm.37,3.3a4.46,4.46,0,0,0-3.55-1.64,4.38,4.38,0,0,0-4.42,3,12,12,0,0,0-.63,4.26,7.57,7.57,0,0,0,1.25,4.7,4,4,0,0,0,3.36,1.62,4.72,4.72,0,0,0,4.64-3,9.7,9.7,0,0,0,.75-3.95A7.64,7.64,0,0,0,273.46,394.88Z"/><path class="cls-2" d="M293.68,391.35a6.92,6.92,0,0,1,2.77,2.37,8.31,8.31,0,0,1,1.23,3.23,21.3,21.3,0,0,1,.27,4H284.63a8,8,0,0,0,1.31,4.48,4.33,4.33,0,0,0,3.78,1.69,4.86,4.86,0,0,0,3.82-1.6,5.51,5.51,0,0,0,1.13-2.14h3a6.3,6.3,0,0,1-.79,2.24,8.07,8.07,0,0,1-1.51,2,7.16,7.16,0,0,1-3.44,1.85,10.58,10.58,0,0,1-2.5.27,7.62,7.62,0,0,1-5.75-2.49,9.69,9.69,0,0,1-2.36-7,10.57,10.57,0,0,1,2.37-7.16,7.82,7.82,0,0,1,6.22-2.75A8.23,8.23,0,0,1,293.68,391.35Zm1.11,7.19a8.14,8.14,0,0,0-.87-3.2,4.41,4.41,0,0,0-4.18-2.22,4.62,4.62,0,0,0-3.53,1.53,5.81,5.81,0,0,0-1.51,3.89Z"/><path class="cls-2" d="M301.84,390.85h2.93v2.59a8,8,0,0,1,2.75-2.3,7.26,7.26,0,0,1,3.23-.7q3.9,0,5.26,2.71a9.68,9.68,0,0,1,.75,4.26v11.74h-3.12V397.61a6.29,6.29,0,0,0-.5-2.7,3,3,0,0,0-3-1.71,6,6,0,0,0-1.8.23,4.64,4.64,0,0,0-2.22,1.5,4.57,4.57,0,0,0-1,1.87,12.93,12.93,0,0,0-.23,2.76v9.59h-3.08Z"/><path class="cls-2" d="M331.36,391.41a8.12,8.12,0,0,1,1.86,1.79V384h3v25.19h-2.77V406.6a6.65,6.65,0,0,1-2.54,2.45,7.25,7.25,0,0,1-3.35.75,6.81,6.81,0,0,1-5.28-2.57,10.09,10.09,0,0,1-2.23-6.85,11.92,11.92,0,0,1,2-6.93,6.68,6.68,0,0,1,5.82-2.93A6.47,6.47,0,0,1,331.36,391.41Zm-6.86,13.72a4.32,4.32,0,0,0,4,2,4.2,4.2,0,0,0,3.49-1.84,8.73,8.73,0,0,0,1.37-5.27,7.83,7.83,0,0,0-1.41-5.14,4.4,4.4,0,0,0-3.49-1.67,4.62,4.62,0,0,0-3.75,1.78,8.17,8.17,0,0,0-1.43,5.23A9.07,9.07,0,0,0,324.5,405.13Z"/><path class="cls-2" d="M350.58,398.07a1.66,1.66,0,0,0,1.42-.88,2.7,2.7,0,0,0,.21-1.19,2.53,2.53,0,0,0-1.12-2.29,6,6,0,0,0-3.2-.71,4,4,0,0,0-3.41,1.3,4.38,4.38,0,0,0-.73,2.15h-2.87q.08-3.39,2.19-4.72A8.94,8.94,0,0,1,348,390.4a9.94,9.94,0,0,1,5.24,1.23,4.19,4.19,0,0,1,2,3.83V406a1.32,1.32,0,0,0,.19.76c.13.2.41.29.83.29a3.78,3.78,0,0,0,.46,0c.18,0,.36,0,.55-.08v2.28a8.81,8.81,0,0,1-1.09.25,7.08,7.08,0,0,1-1,.05,2.51,2.51,0,0,1-2.3-1.12,4.21,4.21,0,0,1-.53-1.7,7.81,7.81,0,0,1-2.71,2.14,8.36,8.36,0,0,1-3.87.9,5.79,5.79,0,0,1-4.17-1.54,5.15,5.15,0,0,1-1.61-3.87,5,5,0,0,1,1.59-3.94,7.54,7.54,0,0,1,4.17-1.72Zm-6.47,8.31a3.61,3.61,0,0,0,2.3.77,7,7,0,0,0,3.15-.75,4.22,4.22,0,0,0,2.56-4.08v-2.47a5.19,5.19,0,0,1-1.45.6,12.41,12.41,0,0,1-1.74.34l-1.86.24a7.19,7.19,0,0,0-2.51.7,2.72,2.72,0,0,0-1.43,2.56A2.52,2.52,0,0,0,344.11,406.38Z"/><path class="cls-2" d="M380,391.41a8.55,8.55,0,0,1,1.86,1.79V384h2.95v25.19h-2.77V406.6a6.63,6.63,0,0,1-2.53,2.45,7.29,7.29,0,0,1-3.36.75,6.77,6.77,0,0,1-5.27-2.57,10.09,10.09,0,0,1-2.23-6.85,11.84,11.84,0,0,1,2-6.93,6.66,6.66,0,0,1,5.81-2.93A6.49,6.49,0,0,1,380,391.41Zm-6.87,13.72a4.34,4.34,0,0,0,4,2,4.21,4.21,0,0,0,3.5-1.84A8.73,8.73,0,0,0,382,400a7.83,7.83,0,0,0-1.42-5.14,4.39,4.39,0,0,0-3.48-1.67,4.62,4.62,0,0,0-3.75,1.78,8.17,8.17,0,0,0-1.44,5.23A9.16,9.16,0,0,0,373.15,405.13Z"/><path class="cls-2" d="M400.74,391.35a6.89,6.89,0,0,1,2.76,2.37,8.15,8.15,0,0,1,1.23,3.23,21.3,21.3,0,0,1,.27,4H391.69a7.88,7.88,0,0,0,1.3,4.48,4.36,4.36,0,0,0,3.78,1.69,4.85,4.85,0,0,0,3.82-1.6,5.38,5.38,0,0,0,1.13-2.14h3a6.3,6.3,0,0,1-.79,2.24,7.84,7.84,0,0,1-1.51,2,7.12,7.12,0,0,1-3.44,1.85,10.58,10.58,0,0,1-2.5.27,7.62,7.62,0,0,1-5.75-2.49,9.69,9.69,0,0,1-2.36-7,10.57,10.57,0,0,1,2.37-7.16,7.82,7.82,0,0,1,6.22-2.75A8.3,8.3,0,0,1,400.74,391.35Zm1.1,7.19a8.14,8.14,0,0,0-.87-3.2,4.41,4.41,0,0,0-4.18-2.22,4.63,4.63,0,0,0-3.53,1.53,5.81,5.81,0,0,0-1.51,3.89Z"/><path class="cls-2" d="M419.35,384h18.22v3.08h-14.9v7.62h13.77v2.91H422.67v8.51h15.16v3H419.35Z"/><path class="cls-2" d="M443.48,390.85l4.88,14.9,5.1-14.9h3.36l-6.89,18.3h-3.28l-6.75-18.3Z"/><path class="cls-2" d="M470.77,391.35a7,7,0,0,1,2.77,2.37,8.14,8.14,0,0,1,1.22,3.23,21.3,21.3,0,0,1,.27,4H461.72a8,8,0,0,0,1.3,4.48,4.36,4.36,0,0,0,3.79,1.69,4.84,4.84,0,0,0,3.81-1.6,5.38,5.38,0,0,0,1.13-2.14h3a6.34,6.34,0,0,1-.8,2.24,7.84,7.84,0,0,1-1.51,2,7.07,7.07,0,0,1-3.44,1.85,10.44,10.44,0,0,1-2.49.27,7.62,7.62,0,0,1-5.76-2.49,9.73,9.73,0,0,1-2.36-7,10.53,10.53,0,0,1,2.38-7.16,7.8,7.8,0,0,1,6.21-2.75A8.24,8.24,0,0,1,470.77,391.35Zm1.1,7.19a8,8,0,0,0-.86-3.2,4.44,4.44,0,0,0-4.19-2.22,4.63,4.63,0,0,0-3.53,1.53,5.8,5.8,0,0,0-1.5,3.89Z"/><path class="cls-2" d="M478.93,390.85h2.92v2.59a8.12,8.12,0,0,1,2.75-2.3,7.32,7.32,0,0,1,3.23-.7c2.6,0,4.35.9,5.27,2.71a9.68,9.68,0,0,1,.75,4.26v11.74h-3.13V397.61a6.3,6.3,0,0,0-.49-2.7,3,3,0,0,0-3-1.71,5.9,5.9,0,0,0-1.79.23,4.55,4.55,0,0,0-2.22,1.5,4.46,4.46,0,0,0-1,1.87,12.2,12.2,0,0,0-.24,2.76v9.59h-3.07Z"/><path class="cls-2" d="M499,385.74h3.11v5.11H505v2.51h-2.92V405.3a1.31,1.31,0,0,0,.65,1.29,2.89,2.89,0,0,0,1.2.18h.47a4.68,4.68,0,0,0,.6-.05v2.44a6.49,6.49,0,0,1-1.1.22,9.54,9.54,0,0,1-1.24.07,3.35,3.35,0,0,1-2.92-1.1,4.93,4.93,0,0,1-.77-2.86V393.36h-2.48v-2.51H499Z"/><path class="cls-2" d="M521.38,392.67q2.43,2.35,2.43,6.94a12,12,0,0,1-2.14,7.3q-2.14,2.89-6.64,2.89a7.46,7.46,0,0,1-5.95-2.55,10.14,10.14,0,0,1-2.21-6.86,11,11,0,0,1,2.33-7.34,7.78,7.78,0,0,1,6.24-2.73A8.21,8.21,0,0,1,521.38,392.67Zm-1.91,12.17a11.61,11.61,0,0,0,1.12-5.15,9.22,9.22,0,0,0-.81-4.16,4.54,4.54,0,0,0-4.42-2.53,4.36,4.36,0,0,0-4.06,2.15,10.08,10.08,0,0,0-1.27,5.19,8.74,8.74,0,0,0,1.27,4.86,4.44,4.44,0,0,0,4,1.95A4.19,4.19,0,0,0,519.47,404.84Z"/><path class="cls-2" d="M529.41,403.41a4.51,4.51,0,0,0,.79,2.36c.79,1,2.16,1.48,4.11,1.48a6.09,6.09,0,0,0,3.07-.74,2.46,2.46,0,0,0,1.33-2.3,1.94,1.94,0,0,0-1.06-1.79,13.17,13.17,0,0,0-2.67-.88l-2.49-.61a12.45,12.45,0,0,1-3.51-1.3,3.87,3.87,0,0,1-2-3.45,5.26,5.26,0,0,1,1.9-4.21,7.62,7.62,0,0,1,5.1-1.6q4.18,0,6,2.42a5.28,5.28,0,0,1,1.13,3.32h-2.91a3.54,3.54,0,0,0-.75-1.89c-.72-.8-2-1.2-3.76-1.2a4.65,4.65,0,0,0-2.71.66,2.06,2.06,0,0,0-.91,1.75,2.14,2.14,0,0,0,1.2,1.91,7,7,0,0,0,2.06.75l2.07.5a16.22,16.22,0,0,1,4.53,1.55,4.14,4.14,0,0,1,1.79,3.71,5.58,5.58,0,0,1-1.88,4.22q-1.87,1.79-5.71,1.78-4.14,0-5.86-1.85a7,7,0,0,1-1.84-4.59Z"/></svg>