<?xml version="1.0" encoding="utf-8"?>
<!-- Generator: Adobe Illustrator 24.1.0, SVG Export Plug-In . SVG Version: 6.00 Build 0)  -->
<svg version="1.1" id="Capa_1" xmlns="http://www.w3.org/2000/svg" xmlns:xlink="http://www.w3.org/1999/xlink" x="0px" y="0px"
	 viewBox="0 0 39.8 19.1" style="enable-background:new 0 0 39.8 19.1;" xml:space="preserve">
<style type="text/css">
	.st0{fill:#6EACB2;}
	.st1{fill:#497290;}
	.st2{fill:#FFFFFF;}
</style>
<g>
	<path class="st0" d="M32.9,1.4H18.5c3.8,0,6.8,3.1,6.8,6.9v2.6c0,3.8-3.1,6.8-6.8,6.9H33c3.8,0,6.8-3.1,6.8-6.9V8.3
		C39.8,4.5,36.7,1.4,32.9,1.4z"/>
	<path class="st1" d="M25.3,10.8V8.3c0-3.8-3.1-6.9-6.8-6.9h-7.3c2.2,1.5,3.6,4,3.6,6.9v2.6c0,2.8-1.4,5.4-3.6,6.8h7.3
		C22.3,17.7,25.3,14.6,25.3,10.8z"/>
	<path class="st2" d="M6.5,16.3c3,0,5.4-2.4,5.4-5.4V8.3c0-3-2.4-5.4-5.4-5.4H0v13.5h6.5V16.3z"/>
	<path class="st2" d="M0,17.7v1.4h6.5c1.7,0,3.3-0.5,4.6-1.4H6.5H0z"/>
	<path class="st2" d="M6.5,1.4h4.6C9.8,0.5,8.2,0,6.5,0H0v1.4H6.5z"/>
	<path class="st2" d="M14.8,10.8V8.3c0-2.8-1.4-5.4-3.6-6.9H6.5c3.8,0,6.8,3.1,6.8,6.8l0,0v2.6c0,3.8-3.1,6.9-6.8,6.9h4.6
		C13.4,16.2,14.8,13.7,14.8,10.8z"/>
	<path class="st2" d="M0,2.8h6.5c3,0,5.4,2.4,5.4,5.4v2.6c0,3-2.4,5.4-5.4,5.4H0v1.4h6.5c3.8,0,6.8-3.1,6.8-6.9V8.3l0,0
		c0-3.8-3.1-6.8-6.8-6.8H0V2.8z"/>
</g>
</svg>
