<svg id="Capa_1" data-name="Capa 1" xmlns="http://www.w3.org/2000/svg" viewBox="0 0 462.35 130.74"><defs><style>.cls-1{fill:#221f20;}.cls-2{fill:#fff;}</style></defs><rect class="cls-1" x="52.05" y="27.78" width="408.81" height="86.62" rx="12"/><path class="cls-2" d="M453.85,116.9H69.05a13.51,13.51,0,0,1-13.5-13.5V40.78a13.51,13.51,0,0,1,13.5-13.5h384.8a13.51,13.51,0,0,1,13.5,13.5V103.4A13.51,13.51,0,0,1,453.85,116.9ZM69.05,30.28a10.51,10.51,0,0,0-10.5,10.5V103.4a10.51,10.51,0,0,0,10.5,10.5h384.8a10.51,10.51,0,0,0,10.5-10.5V40.78a10.51,10.51,0,0,0-10.5-10.5Z" transform="translate(-5 -1)"/><path class="cls-2" d="M191.57,47.52h6.75A6.34,6.34,0,0,1,203.65,50a9.21,9.21,0,0,1,1.69,5.72,11.45,11.45,0,0,1-1,4.86,6.15,6.15,0,0,1-6,3.84h-6.73Zm6.3,14.94a5.79,5.79,0,0,0,1.87-.25,4,4,0,0,0,2.13-1.72,7.32,7.32,0,0,0,1-2.62A10.54,10.54,0,0,0,203,56.1a8.44,8.44,0,0,0-1.22-4.88,4.5,4.5,0,0,0-3.93-1.73h-4v13Z" transform="translate(-5 -1)"/><path class="cls-2" d="M217,52.44A4.69,4.69,0,0,1,218.84,54a5.54,5.54,0,0,1,.82,2.17,14.57,14.57,0,0,1,.18,2.72h-9a5.32,5.32,0,0,0,.88,3,2.91,2.91,0,0,0,2.54,1.14A3.27,3.27,0,0,0,216.88,62a3.76,3.76,0,0,0,.76-1.44h2a4.29,4.29,0,0,1-.53,1.51,5.55,5.55,0,0,1-1,1.36,4.73,4.73,0,0,1-2.31,1.24,6.69,6.69,0,0,1-1.68.19,5.13,5.13,0,0,1-3.87-1.68,6.5,6.5,0,0,1-1.59-4.68,7.1,7.1,0,0,1,1.6-4.82,5.26,5.26,0,0,1,4.18-1.85A5.52,5.52,0,0,1,217,52.44Zm.75,4.83a5.4,5.4,0,0,0-.59-2.15,3,3,0,0,0-2.81-1.49,3.1,3.1,0,0,0-2.37,1,3.88,3.88,0,0,0-1,2.61Zm-.83-10.13-3.07,3.33h-1.59l2.11-3.33Z" transform="translate(-5 -1)"/><path class="cls-2" d="M221.69,67.53a4.19,4.19,0,0,0,1.67-.25c.19-.14.28-.56.28-1.26V52.16h2.07V66.24a3.72,3.72,0,0,1-.44,2,3,3,0,0,1-2.74,1.13h-.32l-.52-.05Zm4-17.62h-2.07V47.52h2.07Z" transform="translate(-5 -1)"/><path class="cls-2" d="M236.65,57a1.12,1.12,0,0,0,.95-.6,1.83,1.83,0,0,0,.14-.79A1.68,1.68,0,0,0,237,54a4,4,0,0,0-2.15-.48,2.74,2.74,0,0,0-2.3.87,3,3,0,0,0-.49,1.45h-1.93a3.6,3.6,0,0,1,1.47-3.18,6.12,6.12,0,0,1,3.29-.89,6.73,6.73,0,0,1,3.53.83,2.81,2.81,0,0,1,1.34,2.57v7.1a.88.88,0,0,0,.13.51.65.65,0,0,0,.56.2l.31,0,.37-.05v1.53a5.41,5.41,0,0,1-.74.17,6.21,6.21,0,0,1-.69,0,1.71,1.71,0,0,1-1.55-.75,2.79,2.79,0,0,1-.35-1.14A5.29,5.29,0,0,1,236,64.21a5.58,5.58,0,0,1-2.61.61,3.85,3.85,0,0,1-2.8-1,3.45,3.45,0,0,1-1.09-2.6,3.36,3.36,0,0,1,1.07-2.65,5.14,5.14,0,0,1,2.81-1.16Zm-4.36,5.59a2.46,2.46,0,0,0,1.55.52,4.69,4.69,0,0,0,2.12-.51,2.83,2.83,0,0,0,1.72-2.74V58.15a3.67,3.67,0,0,1-1,.41,10.49,10.49,0,0,1-1.17.23l-1.25.16a4.79,4.79,0,0,0-1.7.47,1.83,1.83,0,0,0-1,1.72A1.7,1.7,0,0,0,232.29,62.55Z" transform="translate(-5 -1)"/><path class="cls-2" d="M244.32,52.1h2v1.75a5.51,5.51,0,0,1,1.85-1.56,5,5,0,0,1,2.17-.47,3.57,3.57,0,0,1,3.54,1.83,6.45,6.45,0,0,1,.51,2.86v7.9h-2.11V56.65a4.26,4.26,0,0,0-.33-1.82,2,2,0,0,0-2-1.15,4.11,4.11,0,0,0-1.21.15,3.09,3.09,0,0,0-1.49,1,3,3,0,0,0-.68,1.25,8.87,8.87,0,0,0-.15,1.86v6.45h-2.07Z" transform="translate(-5 -1)"/><path class="cls-2" d="M267.51,53.33A6.19,6.19,0,0,1,269.14,58a8.12,8.12,0,0,1-1.43,4.92,5.21,5.21,0,0,1-4.47,1.94,5,5,0,0,1-4-1.72,6.8,6.8,0,0,1-1.49-4.61,7.32,7.32,0,0,1,1.57-4.94,5.21,5.21,0,0,1,4.2-1.84A5.51,5.51,0,0,1,267.51,53.33Zm-1.28,8.18a7.87,7.87,0,0,0,.75-3.46,6.26,6.26,0,0,0-.54-2.8,3.06,3.06,0,0,0-3-1.7A2.94,2.94,0,0,0,260.73,55a6.76,6.76,0,0,0-.85,3.49,5.9,5.9,0,0,0,.85,3.28,3,3,0,0,0,2.71,1.31A2.83,2.83,0,0,0,266.23,61.51Z" transform="translate(-5 -1)"/><path class="cls-2" d="M274.09,60.55a2.89,2.89,0,0,0,.53,1.58,3.35,3.35,0,0,0,2.77,1,4.06,4.06,0,0,0,2.06-.5,1.64,1.64,0,0,0,.9-1.54,1.32,1.32,0,0,0-.72-1.21,8.74,8.74,0,0,0-1.8-.59l-1.67-.41A8.42,8.42,0,0,1,273.8,58a2.62,2.62,0,0,1-1.35-2.33,3.51,3.51,0,0,1,1.27-2.82,5.15,5.15,0,0,1,3.44-1.08,4.79,4.79,0,0,1,4.06,1.63,3.54,3.54,0,0,1,.76,2.23h-2a2.24,2.24,0,0,0-.5-1.27,3.29,3.29,0,0,0-2.53-.81,3.15,3.15,0,0,0-1.82.44,1.41,1.41,0,0,0-.62,1.18,1.45,1.45,0,0,0,.81,1.29,5,5,0,0,0,1.39.5l1.39.34a11,11,0,0,1,3.05,1,2.78,2.78,0,0,1,1.2,2.5,3.8,3.8,0,0,1-1.26,2.84,5.44,5.44,0,0,1-3.85,1.19c-1.85,0-3.16-.41-3.94-1.25a4.72,4.72,0,0,1-1.24-3.08Z" transform="translate(-5 -1)"/><path class="cls-2" d="M293.94,48.66H296V52.1h2v1.69h-2v8a.88.88,0,0,0,.43.87,2,2,0,0,0,.81.12h.32l.4,0v1.64a4.41,4.41,0,0,1-.74.15,7.12,7.12,0,0,1-.83,0,2.24,2.24,0,0,1-2-.75,3.3,3.3,0,0,1-.52-1.92V53.79h-1.66V52.1h1.66Z" transform="translate(-5 -1)"/><path class="cls-2" d="M303.32,52.1v8.17a3.44,3.44,0,0,0,.29,1.54,2,2,0,0,0,2,1.11A2.84,2.84,0,0,0,308.48,61a8,8,0,0,0,.41-2.83v-6H311V64.41H309l0-1.82a4.08,4.08,0,0,1-1,1.19,4.3,4.3,0,0,1-2.82,1A3.61,3.61,0,0,1,301.71,63a5.25,5.25,0,0,1-.51-2.51V52.1Z" transform="translate(-5 -1)"/><path class="cls-2" d="M316.75,60.55a2.89,2.89,0,0,0,.53,1.58,3.34,3.34,0,0,0,2.77,1,4.06,4.06,0,0,0,2.06-.5,1.63,1.63,0,0,0,.89-1.54,1.31,1.31,0,0,0-.71-1.21,8.74,8.74,0,0,0-1.8-.59l-1.67-.41a8.29,8.29,0,0,1-2.36-.87,2.62,2.62,0,0,1-1.35-2.33,3.51,3.51,0,0,1,1.27-2.82,5.14,5.14,0,0,1,3.43-1.08,4.79,4.79,0,0,1,4.07,1.63,3.54,3.54,0,0,1,.76,2.23h-2a2.39,2.39,0,0,0-.5-1.27,3.29,3.29,0,0,0-2.53-.81,3.13,3.13,0,0,0-1.82.44,1.41,1.41,0,0,0-.62,1.18,1.45,1.45,0,0,0,.81,1.29,4.75,4.75,0,0,0,1.38.5l1.4.34a10.8,10.8,0,0,1,3,1,2.76,2.76,0,0,1,1.21,2.5,3.8,3.8,0,0,1-1.26,2.84,5.48,5.48,0,0,1-3.85,1.19c-1.85,0-3.17-.41-3.94-1.25a4.72,4.72,0,0,1-1.24-3.08Z" transform="translate(-5 -1)"/><path class="cls-2" d="M343,52.48a5.62,5.62,0,0,1,1.25,1.2V47.47h2V64.41h-1.86V62.7a4.44,4.44,0,0,1-1.71,1.64,4.85,4.85,0,0,1-2.26.51,4.58,4.58,0,0,1-3.55-1.73,6.8,6.8,0,0,1-1.5-4.61,8,8,0,0,1,1.37-4.66,4.49,4.49,0,0,1,3.91-2A4.33,4.33,0,0,1,343,52.48Zm-4.62,9.23A2.92,2.92,0,0,0,341,63a2.82,2.82,0,0,0,2.35-1.23,5.91,5.91,0,0,0,.92-3.55,5.24,5.24,0,0,0-.95-3.45A2.94,2.94,0,0,0,341,53.68a3.1,3.1,0,0,0-2.53,1.2,5.53,5.53,0,0,0-1,3.52A6.18,6.18,0,0,0,338.33,61.71Z" transform="translate(-5 -1)"/><path class="cls-2" d="M352.53,52.1v8.17a3.44,3.44,0,0,0,.29,1.54,2,2,0,0,0,2,1.11A2.85,2.85,0,0,0,357.69,61a8,8,0,0,0,.41-2.83v-6h2.07V64.41h-1.95l0-1.82a4.08,4.08,0,0,1-1,1.19,4.3,4.3,0,0,1-2.82,1A3.61,3.61,0,0,1,350.92,63a5.25,5.25,0,0,1-.51-2.51V52.1Z" transform="translate(-5 -1)"/><path class="cls-2" d="M371.49,52.48a5.41,5.41,0,0,1,1.25,1.2V47.47h2V64.41h-1.86V62.7a4.44,4.44,0,0,1-1.71,1.64,4.84,4.84,0,0,1-2.25.51,4.57,4.57,0,0,1-3.55-1.73,6.8,6.8,0,0,1-1.5-4.61,8,8,0,0,1,1.36-4.66,4.5,4.5,0,0,1,3.91-2A4.33,4.33,0,0,1,371.49,52.48Zm-4.61,9.23A2.9,2.9,0,0,0,369.55,63a2.82,2.82,0,0,0,2.35-1.23,5.84,5.84,0,0,0,.92-3.55,5.19,5.19,0,0,0-.95-3.45,2.94,2.94,0,0,0-2.34-1.13,3.07,3.07,0,0,0-2.52,1.2,5.47,5.47,0,0,0-1,3.52A6.09,6.09,0,0,0,366.88,61.71Z" transform="translate(-5 -1)"/><path class="cls-2" d="M385.6,57a1.12,1.12,0,0,0,.95-.6,2,2,0,0,0-.61-2.33,4,4,0,0,0-2.15-.48,2.76,2.76,0,0,0-2.3.87,3,3,0,0,0-.49,1.45h-1.93a3.6,3.6,0,0,1,1.47-3.18,6.12,6.12,0,0,1,3.29-.89,6.71,6.71,0,0,1,3.53.83,2.79,2.79,0,0,1,1.34,2.57v7.1a.88.88,0,0,0,.14.51c.08.13.27.2.55.2l.31,0,.37-.05v1.53a5.71,5.71,0,0,1-.73.17,6.21,6.21,0,0,1-.69,0,1.72,1.72,0,0,1-1.56-.75,3.13,3.13,0,0,1-.35-1.14,5.2,5.2,0,0,1-1.82,1.43,5.58,5.58,0,0,1-2.61.61,3.87,3.87,0,0,1-2.8-1,3.44,3.44,0,0,1-1.08-2.6,3.35,3.35,0,0,1,1.06-2.65,5.14,5.14,0,0,1,2.81-1.16Zm-4.36,5.59a2.48,2.48,0,0,0,1.55.52,4.69,4.69,0,0,0,2.12-.51,2.83,2.83,0,0,0,1.72-2.74V58.15a3.53,3.53,0,0,1-1,.41,10.49,10.49,0,0,1-1.17.23l-1.25.16a4.66,4.66,0,0,0-1.69.47,1.83,1.83,0,0,0-1,1.72A1.71,1.71,0,0,0,381.24,62.55Z" transform="translate(-5 -1)"/><path class="cls-2" d="M394.5,60.55a2.89,2.89,0,0,0,.53,1.58,3.35,3.35,0,0,0,2.77,1,4.06,4.06,0,0,0,2.06-.5,1.64,1.64,0,0,0,.9-1.54,1.32,1.32,0,0,0-.72-1.21,8.74,8.74,0,0,0-1.8-.59l-1.67-.41a8.42,8.42,0,0,1-2.36-.87,2.62,2.62,0,0,1-1.35-2.33,3.51,3.51,0,0,1,1.27-2.82,5.14,5.14,0,0,1,3.43-1.08,4.79,4.79,0,0,1,4.07,1.63,3.54,3.54,0,0,1,.76,2.23h-2a2.31,2.31,0,0,0-.5-1.27,3.29,3.29,0,0,0-2.53-.81,3.15,3.15,0,0,0-1.82.44,1.41,1.41,0,0,0-.62,1.18,1.45,1.45,0,0,0,.81,1.29,5,5,0,0,0,1.39.5l1.39.34a11,11,0,0,1,3.05,1,2.78,2.78,0,0,1,1.2,2.5,3.8,3.8,0,0,1-1.26,2.84,5.46,5.46,0,0,1-3.85,1.19c-1.85,0-3.17-.41-3.94-1.25a4.72,4.72,0,0,1-1.24-3.08Z" transform="translate(-5 -1)"/><path class="cls-2" d="M198.89,80.35h2.28c-.29.79-.93,2.59-1.94,5.41-.75,2.11-1.38,3.84-1.88,5.17a35.57,35.57,0,0,1-2.53,5.75,2.91,2.91,0,0,1-2.53,1,5.7,5.7,0,0,1-.67,0l-.58-.13V95.66c.36.1.62.16.78.19l.43,0a1.45,1.45,0,0,0,.84-.19,1.64,1.64,0,0,0,.45-.46c0-.06.18-.38.42-.94l.51-1.27-4.55-12.67h2.34l3.3,10Z" transform="translate(-5 -1)"/><path class="cls-2" d="M208,75.78h1.75l-5.36,16.88h-1.74Z" transform="translate(-5 -1)"/><path class="cls-2" d="M220.78,81.58a6.2,6.2,0,0,1,1.63,4.66A8,8,0,0,1,221,91.16a5.19,5.19,0,0,1-4.46,1.94,5,5,0,0,1-4-1.72A6.79,6.79,0,0,1,211,86.77a7.39,7.39,0,0,1,1.56-4.94,5.26,5.26,0,0,1,4.2-1.84A5.51,5.51,0,0,1,220.78,81.58Zm-1.29,8.18a7.74,7.74,0,0,0,.76-3.46,6.12,6.12,0,0,0-.55-2.8,3.05,3.05,0,0,0-3-1.7A2.93,2.93,0,0,0,214,83.25a6.71,6.71,0,0,0-.85,3.49A5.85,5.85,0,0,0,214,90a3,3,0,0,0,2.7,1.31A2.81,2.81,0,0,0,219.49,89.76Z" transform="translate(-5 -1)"/><path class="cls-2" d="M242,81a4.84,4.84,0,0,1,1.57,3.48h-2a3.73,3.73,0,0,0-.84-1.89,2.67,2.67,0,0,0-2.11-.75,2.9,2.9,0,0,0-2.82,1.92,7.65,7.65,0,0,0-.56,3.09A5.79,5.79,0,0,0,236,90a3,3,0,0,0,4.5.48,4.31,4.31,0,0,0,1-2.14h2A4.87,4.87,0,0,1,238.3,93a4.72,4.72,0,0,1-3.86-1.77,6.76,6.76,0,0,1-1.43-4.4,7.41,7.41,0,0,1,1.57-5,5.11,5.11,0,0,1,4-1.81A5.35,5.35,0,0,1,242,81Z" transform="translate(-5 -1)"/><path class="cls-2" d="M255.72,81.58a6.2,6.2,0,0,1,1.63,4.66,8,8,0,0,1-1.44,4.92,5.2,5.2,0,0,1-4.46,1.94,5,5,0,0,1-4-1.72A6.79,6.79,0,0,1,246,86.77a7.39,7.39,0,0,1,1.56-4.94,5.24,5.24,0,0,1,4.2-1.84A5.51,5.51,0,0,1,255.72,81.58Zm-1.29,8.18a7.74,7.74,0,0,0,.76-3.46,6.12,6.12,0,0,0-.55-2.8,3.07,3.07,0,0,0-3-1.7,2.9,2.9,0,0,0-2.72,1.45,6.71,6.71,0,0,0-.86,3.49,5.85,5.85,0,0,0,.86,3.27,3,3,0,0,0,2.7,1.31A2.81,2.81,0,0,0,254.43,89.76Z" transform="translate(-5 -1)"/><path class="cls-2" d="M261.07,80.35h2V82.1a6.52,6.52,0,0,1,1.34-1.32,4,4,0,0,1,2.32-.71,3.68,3.68,0,0,1,2.37.73,3.85,3.85,0,0,1,.92,1.22,4.28,4.28,0,0,1,3.71-2,3.42,3.42,0,0,1,3.38,1.8,5.88,5.88,0,0,1,.48,2.6v8.19h-2.15V84.11a2,2,0,0,0-.61-1.69,2.41,2.41,0,0,0-1.5-.46,3,3,0,0,0-2.1.82,3.56,3.56,0,0,0-.88,2.72v7.16h-2.1v-8a4.15,4.15,0,0,0-.3-1.83,1.82,1.82,0,0,0-1.76-.86,3,3,0,0,0-2.13.91,4.43,4.43,0,0,0-1,3.28v6.53h-2.07Z" transform="translate(-5 -1)"/><path class="cls-2" d="M289.46,80.69a4.59,4.59,0,0,1,1.86,1.59,5.46,5.46,0,0,1,.83,2.17,14.64,14.64,0,0,1,.18,2.72h-9a5.37,5.37,0,0,0,.88,3,2.94,2.94,0,0,0,2.55,1.14,3.25,3.25,0,0,0,2.56-1.08,3.57,3.57,0,0,0,.76-1.44h2a4.26,4.26,0,0,1-.54,1.51,5.29,5.29,0,0,1-1,1.36,4.77,4.77,0,0,1-2.32,1.25,7.06,7.06,0,0,1-1.67.18,5.16,5.16,0,0,1-3.88-1.67,6.54,6.54,0,0,1-1.58-4.69,7.07,7.07,0,0,1,1.6-4.81,5.24,5.24,0,0,1,4.18-1.86A5.52,5.52,0,0,1,289.46,80.69Zm.74,4.83a5.29,5.29,0,0,0-.58-2.15,3,3,0,0,0-2.81-1.49,3.07,3.07,0,0,0-2.37,1,3.9,3.9,0,0,0-1,2.61Z" transform="translate(-5 -1)"/><path class="cls-2" d="M296.13,80.35h2V82.1a5.55,5.55,0,0,1,1.85-1.55,4.91,4.91,0,0,1,2.18-.48,3.59,3.59,0,0,1,3.54,1.83,6.63,6.63,0,0,1,.5,2.87v7.89h-2.1V84.9a4.21,4.21,0,0,0-.33-1.81,2,2,0,0,0-2-1.15,4.06,4.06,0,0,0-1.21.15,3.34,3.34,0,0,0-2.17,2.27,8.7,8.7,0,0,0-.15,1.85v6.45h-2.07Z" transform="translate(-5 -1)"/><path class="cls-2" d="M310.81,76.91h2.09v3.44h2V82h-2v8a.87.87,0,0,0,.44.86,2,2,0,0,0,.81.12h.32l.4,0v1.64a4.41,4.41,0,0,1-.74.15,7.26,7.26,0,0,1-.83,0,2.26,2.26,0,0,1-2-.74,3.36,3.36,0,0,1-.52-1.93V82h-1.66V80.35h1.66Z" transform="translate(-5 -1)"/><path class="cls-2" d="M324.72,85.21a1.12,1.12,0,0,0,.95-.6,1.8,1.8,0,0,0,.14-.79,1.69,1.69,0,0,0-.75-1.54,4,4,0,0,0-2.15-.48,2.72,2.72,0,0,0-2.3.88,2.83,2.83,0,0,0-.49,1.44h-1.93A3.54,3.54,0,0,1,319.66,81a6,6,0,0,1,3.29-.9,6.73,6.73,0,0,1,3.53.83,2.81,2.81,0,0,1,1.34,2.57v7.1a.86.86,0,0,0,.13.51c.09.14.28.2.56.2l.31,0,.37,0v1.53a5.41,5.41,0,0,1-.74.17,4.25,4.25,0,0,1-.69,0,1.71,1.71,0,0,1-1.55-.76,2.94,2.94,0,0,1-.36-1.14A5.29,5.29,0,0,1,324,92.47a5.7,5.7,0,0,1-2.61.61,3.89,3.89,0,0,1-2.8-1,3.44,3.44,0,0,1-1.09-2.6,3.38,3.38,0,0,1,1.07-2.66,5.1,5.1,0,0,1,2.81-1.15Zm-4.36,5.59a2.4,2.4,0,0,0,1.55.52,4.73,4.73,0,0,0,2.12-.51,2.83,2.83,0,0,0,1.72-2.74V86.41a3.68,3.68,0,0,1-1,.4,8.46,8.46,0,0,1-1.18.23l-1.25.16a5,5,0,0,0-1.69.47,1.83,1.83,0,0,0-1,1.72A1.68,1.68,0,0,0,320.36,90.8Z" transform="translate(-5 -1)"/><path class="cls-2" d="M332.45,80.35h2v2.13A4.59,4.59,0,0,1,335.6,81a3,3,0,0,1,2.17-.9l.19,0,.48,0v2.19a2.54,2.54,0,0,0-.34,0h-.34a3,3,0,0,0-2.41,1,3.59,3.59,0,0,0-.83,2.32v7.08h-2.07Z" transform="translate(-5 -1)"/><path class="cls-2" d="M341.41,75.78h2.1v2.34h-2.1Zm0,4.63h2.1V92.66h-2.1Z" transform="translate(-5 -1)"/><path class="cls-2" d="M356.73,81.58a6.21,6.21,0,0,1,1.64,4.66,8,8,0,0,1-1.44,4.92,5.2,5.2,0,0,1-4.46,1.94,5,5,0,0,1-4-1.72A6.8,6.8,0,0,1,347,86.77a7.39,7.39,0,0,1,1.57-4.94,5.24,5.24,0,0,1,4.2-1.84A5.49,5.49,0,0,1,356.73,81.58Zm-1.28,8.18a7.88,7.88,0,0,0,.76-3.46,6.25,6.25,0,0,0-.55-2.8,3.08,3.08,0,0,0-3-1.7A2.93,2.93,0,0,0,350,83.25a6.81,6.81,0,0,0-.85,3.49A5.93,5.93,0,0,0,350,90a3,3,0,0,0,2.71,1.31A2.81,2.81,0,0,0,355.45,89.76Z" transform="translate(-5 -1)"/><path class="cls-2" d="M363.32,88.8a3,3,0,0,0,.52,1.59,3.38,3.38,0,0,0,2.77,1,4.23,4.23,0,0,0,2.07-.5,1.67,1.67,0,0,0,.89-1.55,1.33,1.33,0,0,0-.71-1.21,8.71,8.71,0,0,0-1.8-.58l-1.67-.42a8.17,8.17,0,0,1-2.36-.87,2.59,2.59,0,0,1-1.36-2.32A3.53,3.53,0,0,1,363,81.11,5.13,5.13,0,0,1,366.38,80a4.77,4.77,0,0,1,4.06,1.63,3.49,3.49,0,0,1,.76,2.23h-1.95a2.35,2.35,0,0,0-.51-1.27,3.29,3.29,0,0,0-2.53-.81,3.07,3.07,0,0,0-1.82.45,1.38,1.38,0,0,0-.62,1.18,1.46,1.46,0,0,0,.82,1.28,4.75,4.75,0,0,0,1.38.5l1.39.34a11.24,11.24,0,0,1,3.05,1,2.79,2.79,0,0,1,1.21,2.5,3.79,3.79,0,0,1-1.27,2.84,5.39,5.39,0,0,1-3.84,1.19c-1.86,0-3.17-.41-3.94-1.24a4.62,4.62,0,0,1-1.24-3.09Z" transform="translate(-5 -1)"/><circle class="cls-2" cx="65.37" cy="65.37" r="65.37"/><path class="cls-1" d="M83.39,74.34H79.33l-2.11-.93V70.84a14.35,14.35,0,0,0,6.48-7.45h1.81A7.81,7.81,0,0,0,89.66,49v-.89a19.29,19.29,0,1,0-38.58,0V49a7.81,7.81,0,0,0,4.16,14.43h1.81a14.28,14.28,0,0,0,6.47,7.45v2.55l-2.13,1h-4A20.87,20.87,0,0,0,36.51,95.19a1.33,1.33,0,0,0,1.32,1.33H64.42a1.33,1.33,0,0,0,0-2.65H39.2A18.23,18.23,0,0,1,56.51,77l0,0a1.36,1.36,0,0,0,.18,1.11l6.26,9.2a1.35,1.35,0,0,0,1,.57H64a1.33,1.33,0,0,0,.94-.39l5.4-5.4,5.4,5.4a1.33,1.33,0,0,0,.94.39h.12a1.35,1.35,0,0,0,1-.57l6.26-9.2A1.36,1.36,0,0,0,84.23,77a0,0,0,0,1,0,0,18.22,18.22,0,0,1,17.32,16.86H76.33a1.33,1.33,0,1,0,0,2.65h26.59a1.33,1.33,0,0,0,1.32-1.33A20.88,20.88,0,0,0,83.39,74.34Zm-1.45-25A15.32,15.32,0,0,1,74.5,46.2a1.31,1.31,0,0,0-1.62,0,16,16,0,0,1-9.83,3.33A16.34,16.34,0,0,1,58.81,49v-.68a11.56,11.56,0,0,1,23.12,0s0,1,0,1.09Zm3.57,11.37h-.9V50.41h.9a5.17,5.17,0,0,1,0,10.33ZM70.37,31.43A16.66,16.66,0,0,1,87,47.91a7.48,7.48,0,0,0-1.5-.15h-.94a14.21,14.21,0,0,0-28.4,0h-.93a7.51,7.51,0,0,0-1.51.15A16.66,16.66,0,0,1,70.37,31.43ZM56.13,60.74h-.89a5.17,5.17,0,1,1,0-10.33h.89V60.74Zm2.65-2.38V51.68a19,19,0,0,0,4.27.49,18.62,18.62,0,0,0,10.62-3.29A18,18,0,0,0,82,52v6.39A12,12,0,0,1,81.39,62H75.07a4,4,0,0,0-3.75-2.66H69.54a4,4,0,0,0,0,8h1.78a4,4,0,0,0,3.75-2.66h5.05a11.59,11.59,0,0,1-21.34-6.27Zm13.87,5a1.34,1.34,0,0,1-1.33,1.34H69.54a1.34,1.34,0,0,1,0-2.67h1.78A1.34,1.34,0,0,1,72.65,63.31ZM70.37,72.6A14.3,14.3,0,0,0,74.58,72v2.21L70.36,78.4l-4.19-4.19V72a14.23,14.23,0,0,0,4.2.63ZM64.22,84.54,59.75,78l4.46-2,4.28,4.28Zm12.28,0-4.27-4.27L76.51,76,81,78Z" transform="translate(-5 -1)"/><path class="cls-1" d="M70.37,93.87a1.33,1.33,0,0,0-1.32,1.32,1.33,1.33,0,0,0,1.32,1.33,1.33,1.33,0,0,0,1.33-1.33,1.33,1.33,0,0,0-1.33-1.32Z" transform="translate(-5 -1)"/></svg>