<svg id="Capa_1" data-name="Capa 1" xmlns="http://www.w3.org/2000/svg" viewBox="0 0 141.28 141.28"><defs><style>.cls-1{fill:#fff;}.cls-2{fill:#7daab0;}</style></defs><circle class="cls-1" cx="70.64" cy="70.64" r="70.64"/><path class="cls-2" d="M102.94,99.13H96.39V59.05a1,1,0,0,0-1-1H84.56a1,1,0,0,0-1,1V99.13h-7.7V70.94a1,1,0,0,0-1-1H64a1,1,0,0,0-1,1V99.13h-7.7V76.35a1,1,0,0,0-1-1H43.46a1,1,0,0,0-1,1V99.13H35.89a1,1,0,1,0,0,2h67.05a1,1,0,1,0,0-2Zm-49.68,0H44.47V77.36h8.79V99.13Zm20.55,0H65V72h8.79Zm20.55,0H85.57V60.06h8.79V99.13Z"/><path class="cls-2" d="M100.72,32.87a3.2,3.2,0,0,0-2.5-.77l-8.65,1.08a3.18,3.18,0,1,0,.79,6.31l.7-.09A76.71,76.71,0,0,1,58.9,61.27,73,73,0,0,1,39,65.6a3.18,3.18,0,0,0,.1,6.36h.1a77.48,77.48,0,0,0,21.65-4.64,84.89,84.89,0,0,0,19-9.56,1,1,0,0,0,.28-1.4,1,1,0,0,0-1.41-.28A82.77,82.77,0,0,1,60.2,65.4a75.57,75.57,0,0,1-21,4.53h0a1.15,1.15,0,0,1,0-2.3,74.77,74.77,0,0,0,20.48-4.45,78.46,78.46,0,0,0,34.7-24.47,1,1,0,0,0-.92-1.64l-3.25.4a1.15,1.15,0,1,1-.29-2.28l8.65-1.08a1.17,1.17,0,0,1,1.3,1.14V43.9a1.15,1.15,0,1,1-2.3,0V41.28a1,1,0,0,0-.66-1,1,1,0,0,0-1.14.31A78.41,78.41,0,0,1,82.85,53.12a1,1,0,0,0,1.24,1.61A80.75,80.75,0,0,0,95.44,44.05a3.18,3.18,0,0,0,6.35-.15V35.25A3.18,3.18,0,0,0,100.72,32.87Z"/></svg>