<?xml version="1.0" encoding="utf-8"?>
<!-- Generator: Adobe Illustrator 24.1.0, SVG Export Plug-In . SVG Version: 6.00 Build 0)  -->
<svg version="1.1" id="Capa_1" xmlns="http://www.w3.org/2000/svg" xmlns:xlink="http://www.w3.org/1999/xlink" x="0px" y="0px"
	 viewBox="0 0 31.4 31.4" style="enable-background:new 0 0 31.4 31.4;" xml:space="preserve">
<path d="M0.9,0.9L0.9,0.9c1.2-1.2,3-1.2,4.2,0l25.5,25.5c1.2,1.2,1.2,3,0,4.2l0,0c-1.2,1.2-3,1.2-4.2,0L0.9,5
	C-0.3,3.9-0.3,2,0.9,0.9z"/>
<path d="M30.5,0.9L30.5,0.9c1.2,1.2,1.2,3,0,4.2L5,30.5c-1.2,1.2-3,1.2-4.2,0l0,0c-1.2-1.2-1.2-3,0-4.2L26.4,0.9
	C27.5-0.3,29.4-0.3,30.5,0.9z"/>
</svg>
