<svg id="Capa_1" data-name="Capa 1" xmlns="http://www.w3.org/2000/svg" viewBox="0 0 603.61 92.3"><defs><style>.cls-1{fill:#fff;}.cls-2{fill:#26231e;}.cls-3{fill:#d41216;}</style></defs><rect class="cls-1" x="46.15" width="92.3" height="92.3"/><path class="cls-2" d="M735.62,557.22c-8.34,0-15.18-3.32-15.34-12.57h8.39c.11,4.12,2.52,6.58,7.11,6.58,3.43,0,7.28-1.71,7.28-5.56,0-3-2.62-4-6.95-5.19l-2.78-.8c-6.1-1.76-12.14-4.12-12.14-11.06,0-8.61,8-11.5,15.34-11.5,7.54,0,14,2.62,14.06,11.17H742.2c-.32-3.52-2.35-5.55-6.31-5.55-3.1,0-6.2,1.65-6.2,5.07,0,2.84,2.57,3.69,8,5.4l3.21,1c6.63,2.08,10.8,4.38,10.8,10.8,0,8.82-8.5,12.19-16.1,12.19" transform="translate(-482.02 -491.04)"/><path class="cls-2" d="M756.45,517.87h13.41a34.05,34.05,0,0,1,7.59.48c4.71,1.07,8.24,4.12,8.24,9.3,0,5-3.16,7.54-7.7,8.72,5.24,1,9.09,3.63,9.09,9.35,0,8.77-8.67,10.8-15.45,10.8H756.45ZM769.92,534c3.69,0,7.43-.75,7.43-5.24,0-4-3.53-5.08-6.9-5.08h-5.88V534Zm.8,16.79c3.9,0,7.75-.91,7.75-5.61s-3.31-5.67-7.27-5.67h-6.63v11.28Z" transform="translate(-482.02 -491.04)"/><path class="cls-2" d="M809,557.22c-12.46,0-18.07-8-18.07-19.73s6.2-20.37,18.5-20.37c7.7,0,15.18,3.42,15.4,12.19h-8.67c-.42-3.85-3-5.88-6.73-5.88-7.54,0-9.84,8.13-9.84,14.33s2.3,13.31,9.57,13.31c3.8,0,6.58-2,7.16-5.94H825c-1,8.77-8,12.09-16,12.09" transform="translate(-482.02 -491.04)"/><polygon class="cls-2" points="225.11 48.96 208.38 48.96 208.38 65.48 199.99 65.48 199.99 26.83 208.38 26.83 208.38 42.65 225.11 42.65 225.11 26.83 233.51 26.83 233.51 65.48 225.11 65.48 225.11 48.96"/><polygon class="cls-2" points="414 65.81 409.2 65.81 397.61 30.49 386.39 65.81 381.48 65.81 371.29 26.82 375.01 26.82 384.13 62.73 395.56 26.82 399.82 26.82 411.74 62.73 420.79 26.82 424.25 26.82 414 65.81"/><path class="cls-2" d="M910.53,543.75v.65a14.19,14.19,0,0,0,.56,4,10.31,10.31,0,0,0,1.71,3.39,8.23,8.23,0,0,0,6.81,3.27,7.28,7.28,0,0,0,5.22-1.86,8.6,8.6,0,0,0,2.52-4.94h3.07a11.1,11.1,0,0,1-3.73,6.91,11.65,11.65,0,0,1-7.51,2.31,12.39,12.39,0,0,1-5.38-1.07,10.19,10.19,0,0,1-3.71-2.94,12.51,12.51,0,0,1-2.16-4.37,20.15,20.15,0,0,1-.69-5.37,21,21,0,0,1,.72-5.55,13.47,13.47,0,0,1,2.26-4.64,11,11,0,0,1,3.85-3.15,12.15,12.15,0,0,1,5.54-1.16,10.43,10.43,0,0,1,5.35,1.24,9.46,9.46,0,0,1,3.39,3.29,13.22,13.22,0,0,1,1.75,4.66,29.71,29.71,0,0,1,.49,5.37Zm16.77-3a11.42,11.42,0,0,0-.52-3.42,9.29,9.29,0,0,0-1.48-2.91,6.88,6.88,0,0,0-2.46-2,8.51,8.51,0,0,0-7.07.08,8.36,8.36,0,0,0-2.65,2.13,10.16,10.16,0,0,0-1.7,3.07,14,14,0,0,0-.78,3.59H927.3Z" transform="translate(-482.02 -491.04)"/><rect class="cls-2" x="453.26" y="26.82" width="3.29" height="38.99"/><rect class="cls-2" x="463.24" y="26.82" width="3.29" height="38.99"/><rect class="cls-2" x="470.57" y="49.9" width="13.64" height="2.91"/><path class="cls-2" d="M994.28,542.83a19.41,19.41,0,0,1-.76,5.37,14.44,14.44,0,0,1-2.24,4.63,10.75,10.75,0,0,1-9,4.45,9.27,9.27,0,0,1-5-1.24,12.45,12.45,0,0,1-3.64-3.72l-.27,4.53h-3.24c.07-1.36.13-2.72.16-4.07s.06-2.71.06-4.07V517.86h3.29v16.83a10,10,0,0,1,9.38-5.56,10.67,10.67,0,0,1,5.1,1.14,10.08,10.08,0,0,1,3.5,3,13.49,13.49,0,0,1,2.05,4.4,19.39,19.39,0,0,1,.68,5.12m-3.51.41a19.57,19.57,0,0,0-.41-4,12.3,12.3,0,0,0-1.34-3.69,7.76,7.76,0,0,0-2.54-2.71,7,7,0,0,0-4-1.05,8,8,0,0,0-4.15,1,8.15,8.15,0,0,0-2.78,2.66,12,12,0,0,0-1.54,3.71,18.4,18.4,0,0,0-.48,4.17,20.47,20.47,0,0,0,.4,4.06,11.5,11.5,0,0,0,1.37,3.64,7.92,7.92,0,0,0,2.57,2.61,7.36,7.36,0,0,0,4,1,8.16,8.16,0,0,0,4.18-1A8.28,8.28,0,0,0,988.8,551a11,11,0,0,0,1.51-3.66,18.7,18.7,0,0,0,.46-4.14" transform="translate(-482.02 -491.04)"/><path class="cls-2" d="M1000.15,543.75v.65a13.84,13.84,0,0,0,.57,4,10.49,10.49,0,0,0,1.7,3.39,8.27,8.27,0,0,0,6.82,3.27,7.28,7.28,0,0,0,5.22-1.86,8.6,8.6,0,0,0,2.52-4.94h3.07a11.11,11.11,0,0,1-3.74,6.91,11.62,11.62,0,0,1-7.5,2.31,12.35,12.35,0,0,1-5.38-1.07,10.23,10.23,0,0,1-3.72-2.94,12.5,12.5,0,0,1-2.15-4.37,19.75,19.75,0,0,1-.7-5.37,20.6,20.6,0,0,1,.73-5.55,13.47,13.47,0,0,1,2.26-4.64,10.87,10.87,0,0,1,3.85-3.15,12.15,12.15,0,0,1,5.54-1.16,10.46,10.46,0,0,1,5.35,1.24,9.46,9.46,0,0,1,3.39,3.29,13.42,13.42,0,0,1,1.75,4.66,29.71,29.71,0,0,1,.48,5.37Zm16.78-3a11.42,11.42,0,0,0-.52-3.42,9.1,9.1,0,0,0-1.49-2.91,6.79,6.79,0,0,0-2.46-2,8.48,8.48,0,0,0-7.06.08,8.26,8.26,0,0,0-2.65,2.13,10.16,10.16,0,0,0-1.7,3.07,14.43,14.43,0,0,0-.79,3.59h16.67Z" transform="translate(-482.02 -491.04)"/><path class="cls-2" d="M1024.58,517.86h3.94V522h-3.94Zm.32,11.76h3.29v27.23h-3.29Z" transform="translate(-482.02 -491.04)"/><path class="cls-2" d="M1053.32,556.85V541.48a34,34,0,0,0-.18-3.58,8.36,8.36,0,0,0-.89-3,5.13,5.13,0,0,0-2.08-2,7.76,7.76,0,0,0-3.7-.75,8.39,8.39,0,0,0-3.9.83,7,7,0,0,0-2.57,2.27,9.86,9.86,0,0,0-1.4,3.29,16.83,16.83,0,0,0-.43,3.85v14.51h-3.29V537.33c0-1.29,0-2.58-.08-3.85s-.08-2.57-.08-3.86H1038l.21,4.53a11.08,11.08,0,0,1,3.77-3.64,10.57,10.57,0,0,1,5.13-1.16,12.39,12.39,0,0,1,4.61.75,7,7,0,0,1,2.94,2.16,8.62,8.62,0,0,1,1.53,3.4,20,20,0,0,1,.47,4.53v16.66Z" transform="translate(-482.02 -491.04)"/><path class="cls-2" d="M1085.63,529.62c0,.93-.08,1.77-.11,2.51s-.06,1.44-.08,2.13,0,1.35,0,2v11.78q0,3.56-.11,7.07a19.34,19.34,0,0,1-1.15,6.28,9.64,9.64,0,0,1-3.53,4.53q-2.47,1.75-7.15,1.75a19.39,19.39,0,0,1-3.9-.38,10.72,10.72,0,0,1-3.42-1.26,7.12,7.12,0,0,1-2.45-2.43,7.26,7.26,0,0,1-.94-3.86h3.29a5.21,5.21,0,0,0,.6,2.62,4.8,4.8,0,0,0,1.59,1.7,6.82,6.82,0,0,0,2.27.92,13,13,0,0,0,2.68.26,9.33,9.33,0,0,0,5.12-1.18A7,7,0,0,0,1081,561a13,13,0,0,0,1-4.37c.11-1.64.16-3.3.16-5a10.79,10.79,0,0,1-3.83,3.83,10.57,10.57,0,0,1-5.28,1.24,12.09,12.09,0,0,1-5.31-1.08,10.61,10.61,0,0,1-3.73-2.94,12.32,12.32,0,0,1-2.18-4.34,19.42,19.42,0,0,1-.7-5.34,18.4,18.4,0,0,1,.73-5.2,13.24,13.24,0,0,1,2.18-4.42,10.9,10.9,0,0,1,3.67-3.08,11,11,0,0,1,5.17-1.16,10,10,0,0,1,9.39,5.5c0-.82,0-1.66,0-2.5s0-1.68,0-2.51Zm-3.4,13.13a14.67,14.67,0,0,0-.54-3.9,11.85,11.85,0,0,0-1.62-3.55,8.42,8.42,0,0,0-2.72-2.56,7.52,7.52,0,0,0-3.86-1,8,8,0,0,0-4.1,1,8.28,8.28,0,0,0-2.72,2.61,11.26,11.26,0,0,0-1.51,3.66,19.17,19.17,0,0,0-.46,4.14,16.84,16.84,0,0,0,.49,4.09,10.84,10.84,0,0,0,1.54,3.55,7.86,7.86,0,0,0,2.69,2.5,8,8,0,0,0,4,.94,8.09,8.09,0,0,0,4.13-1,7.9,7.9,0,0,0,2.72-2.64,11.63,11.63,0,0,0,1.48-3.71,19,19,0,0,0,.46-4.17" transform="translate(-482.02 -491.04)"/><rect class="cls-2" x="358.27" y="11.51" width="0.51" height="69.01"/><polygon class="cls-3" points="184.6 46.15 138.45 0 138.45 92.3 184.6 46.15"/><polygon class="cls-3" points="92.3 46.15 138.45 0 46.15 0 92.3 46.15"/><polygon class="cls-3" points="0 46.15 46.15 92.3 46.15 0 0 46.15"/><polygon class="cls-3" points="92.3 46.15 46.15 92.3 138.45 92.3 92.3 46.15"/></svg>