<svg id="Capa_1" data-name="Capa 1" xmlns="http://www.w3.org/2000/svg" viewBox="0 0 923.37 141.2"><defs><style>.cls-1{fill:#fff;}</style></defs><path class="cls-1" d="M394,106.83c-12.75,0-23.22-5.07-23.47-19.22h12.84c.17,6.29,3.85,10.06,10.88,10.06,5.23,0,11.12-2.62,11.12-8.51,0-4.58-4-6-10.63-7.93L390.44,80c-9.33-2.7-18.57-6.3-18.57-16.93,0-13.17,12.27-17.58,23.47-17.58,11.54,0,21.43,4,21.51,17.09H404c-.49-5.4-3.6-8.5-9.65-8.5-4.74,0-9.48,2.53-9.48,7.76,0,4.34,3.92,5.65,12.26,8.27l4.91,1.55c10.14,3.19,16.52,6.7,16.52,16.52,0,13.49-13,18.65-24.62,18.65" transform="translate(-6 -5.6)"/><path class="cls-1" d="M425.8,46.63h20.53c6.46,0,9.08.17,11.61.74,7.2,1.63,12.6,6.3,12.6,14.23,0,7.6-4.83,11.53-11.78,13.33,8,1.47,13.9,5.56,13.9,14.31,0,13.41-13.25,16.52-23.63,16.52H425.8Zm20.61,24.62c5.65,0,11.37-1.15,11.37-8,0-6.13-5.4-7.76-10.55-7.76h-9V71.25Zm1.23,25.68c6,0,11.86-1.39,11.86-8.59,0-7-5.08-8.67-11.13-8.67H438.23V96.93Z" transform="translate(-6 -5.6)"/><path class="cls-1" d="M506.12,106.83c-19.06,0-27.64-12.19-27.64-30.18,0-17.83,9.49-31.16,28.3-31.16,11.77,0,23.22,5.23,23.55,18.64H517.08c-.65-5.89-4.58-9-10.3-9-11.53,0-15,12.43-15,21.92s3.52,20.36,14.64,20.36c5.8,0,10.06-3.11,11-9.08h13.33c-1.47,13.42-12.27,18.49-24.54,18.49" transform="translate(-6 -5.6)"/><polygon class="cls-1" points="344.37 74.89 318.77 74.89 318.77 100.16 305.93 100.16 305.93 41.03 318.77 41.03 318.77 65.24 344.37 65.24 344.37 41.03 357.21 41.03 357.21 100.16 344.37 100.16 344.37 74.89"/><path class="cls-1" d="M639.32,106.27H632l-17.74-54-17.16,54h-7.51L574,46.62h5.69l14,54.94,17.49-54.94h6.51l18.23,54.94,13.86-54.94H655Z" transform="translate(-6 -5.6)"/><path class="cls-1" d="M661.51,86.22v1a21.14,21.14,0,0,0,.87,6.06,15.8,15.8,0,0,0,2.61,5.2,12.59,12.59,0,0,0,10.42,5,11.19,11.19,0,0,0,8-2.84,13.21,13.21,0,0,0,3.85-7.55H692q-1.32,7-5.72,10.56t-11.48,3.54a18.94,18.94,0,0,1-8.23-1.65,15.51,15.51,0,0,1-5.68-4.49,19,19,0,0,1-3.29-6.69,30.1,30.1,0,0,1-1.07-8.2,32,32,0,0,1,1.11-8.5,20.22,20.22,0,0,1,3.46-7.09,16.68,16.68,0,0,1,5.88-4.83A18.79,18.79,0,0,1,675.41,64a16.11,16.11,0,0,1,8.19,1.89,14.78,14.78,0,0,1,5.18,5A20.71,20.71,0,0,1,691.46,78a45.34,45.34,0,0,1,.74,8.21Zm25.66-4.54a17.64,17.64,0,0,0-.79-5.24A14.19,14.19,0,0,0,684.1,72a10.41,10.41,0,0,0-3.76-3,11.73,11.73,0,0,0-5.26-1.12,12,12,0,0,0-5.54,1.24,12.71,12.71,0,0,0-4.06,3.26,15.75,15.75,0,0,0-2.61,4.7,22.17,22.17,0,0,0-1.19,5.49h25.49Z" transform="translate(-6 -5.6)"/><path class="cls-1" d="M699.37,106.27V46.62h5v59.65Z" transform="translate(-6 -5.6)"/><path class="cls-1" d="M714.64,106.27V46.62h5v59.65Z" transform="translate(-6 -5.6)"/><path class="cls-1" d="M725.86,86.39V81.93h20.87v4.46Z" transform="translate(-6 -5.6)"/><path class="cls-1" d="M789.63,84.82A29.5,29.5,0,0,1,788.47,93a22.44,22.44,0,0,1-3.42,7.09,17.06,17.06,0,0,1-5.74,4.95,16.82,16.82,0,0,1-8.08,1.86,14.31,14.31,0,0,1-7.72-1.9A19.39,19.39,0,0,1,758,99.34l-.42,6.93h-4.95c.11-2.09.2-4.17.25-6.23s.08-4.14.08-6.23V46.62h5V72.36a15.27,15.27,0,0,1,14.35-8.5,16.39,16.39,0,0,1,7.8,1.74,15.37,15.37,0,0,1,5.36,4.66A20.57,20.57,0,0,1,788.59,77,29.65,29.65,0,0,1,789.63,84.82Zm-5.37.62a30.68,30.68,0,0,0-.62-6.14,18.93,18.93,0,0,0-2.06-5.63,11.9,11.9,0,0,0-3.88-4.16,10.77,10.77,0,0,0-6.06-1.6,12.25,12.25,0,0,0-6.35,1.56A12.56,12.56,0,0,0,761,73.54a18.11,18.11,0,0,0-2.35,5.68A27.59,27.59,0,0,0,758,85.6a30.85,30.85,0,0,0,.62,6.21,17.25,17.25,0,0,0,2.1,5.56,11.69,11.69,0,0,0,3.92,4,11.17,11.17,0,0,0,6.06,1.52,11.92,11.92,0,0,0,10.6-5.51,17.06,17.06,0,0,0,2.31-5.6A28.63,28.63,0,0,0,784.26,85.44Z" transform="translate(-6 -5.6)"/><path class="cls-1" d="M798.62,86.22v1a20.8,20.8,0,0,0,.87,6.06,15.59,15.59,0,0,0,2.6,5.2,12.63,12.63,0,0,0,10.43,5,11.22,11.22,0,0,0,8-2.84,13.27,13.27,0,0,0,3.85-7.55h4.7q-1.32,7-5.72,10.56t-11.48,3.54a18.91,18.91,0,0,1-8.23-1.65A15.51,15.51,0,0,1,798,101a19.05,19.05,0,0,1-3.3-6.69,30.49,30.49,0,0,1-1.07-8.2,31.54,31.54,0,0,1,1.12-8.5,20.38,20.38,0,0,1,3.45-7.09A16.81,16.81,0,0,1,804,65.72,18.71,18.71,0,0,1,812.51,64a16.06,16.06,0,0,1,8.19,1.89,14.81,14.81,0,0,1,5.19,5A20.5,20.5,0,0,1,828.56,78a44.46,44.46,0,0,1,.74,8.21Zm25.65-4.54a17.64,17.64,0,0,0-.78-5.24A14.41,14.41,0,0,0,821.21,72a10.49,10.49,0,0,0-3.76-3,11.76,11.76,0,0,0-5.26-1.12,12,12,0,0,0-5.55,1.24,12.67,12.67,0,0,0-4,3.26A15.54,15.54,0,0,0,800,77a22.65,22.65,0,0,0-1.2,5.49h25.49Z" transform="translate(-6 -5.6)"/><path class="cls-1" d="M836,52.89V46.62h6v6.27Zm.49,53.38V64.61h5v41.66Z" transform="translate(-6 -5.6)"/><path class="cls-1" d="M880,106.27V82.75a50.25,50.25,0,0,0-.29-5.48,12.28,12.28,0,0,0-1.37-4.58,7.71,7.71,0,0,0-3.17-3.13,11.77,11.77,0,0,0-5.65-1.16,12.74,12.74,0,0,0-6,1.28,10.68,10.68,0,0,0-3.92,3.46,14.87,14.87,0,0,0-2.15,5,25.94,25.94,0,0,0-.66,5.89v22.2h-5V76.4c0-2,0-3.94-.12-5.9s-.12-3.91-.12-5.89h4.94l.33,6.93A17,17,0,0,1,862.55,66a15.94,15.94,0,0,1,7.84-1.78,18.84,18.84,0,0,1,7.05,1.16,10.5,10.5,0,0,1,4.5,3.3,13.43,13.43,0,0,1,2.35,5.2,31.44,31.44,0,0,1,.7,6.92v25.5Z" transform="translate(-6 -5.6)"/><path class="cls-1" d="M929.37,64.61c0,1.43-.11,2.7-.16,3.83s-.1,2.22-.13,3.26,0,2.08,0,3.09v18c0,3.63-.06,7.23-.16,10.81a29.72,29.72,0,0,1-1.77,9.61,14.74,14.74,0,0,1-5.39,6.93q-3.79,2.67-11,2.68a30.36,30.36,0,0,1-6-.58,16.18,16.18,0,0,1-5.22-1.94,10.74,10.74,0,0,1-3.75-3.71,11.14,11.14,0,0,1-1.44-5.9h5a8.08,8.08,0,0,0,.91,4,7.45,7.45,0,0,0,2.45,2.6,10.17,10.17,0,0,0,3.47,1.4,19.45,19.45,0,0,0,4.1.42c3.37,0,6-.61,7.82-1.82a10.76,10.76,0,0,0,4.06-4.74,19.86,19.86,0,0,0,1.53-6.69c.16-2.5.25-5,.25-7.63a16.57,16.57,0,0,1-5.86,5.86,16.2,16.2,0,0,1-8.08,1.9,18.54,18.54,0,0,1-8.13-1.65,16.08,16.08,0,0,1-5.69-4.5,18.55,18.55,0,0,1-3.34-6.64,29.72,29.72,0,0,1-1.07-8.17,28.55,28.55,0,0,1,1.11-8,20.37,20.37,0,0,1,3.34-6.76,16.36,16.36,0,0,1,13.53-6.48q9.81,0,14.35,8.42c0-1.27,0-2.55,0-3.84s0-2.57,0-3.83Zm-5.2,20.08a22.41,22.41,0,0,0-.82-6,17.94,17.94,0,0,0-2.48-5.43,12.74,12.74,0,0,0-4.16-3.91,11.41,11.41,0,0,0-5.9-1.48,12,12,0,0,0-6.27,1.52,12.44,12.44,0,0,0-4.17,4,17.06,17.06,0,0,0-2.31,5.6,29.24,29.24,0,0,0-.7,6.33,26.61,26.61,0,0,0,.74,6.26A16.64,16.64,0,0,0,900.46,97,13,13,0,0,0,917,100.78a11.81,11.81,0,0,0,4.16-4,17.66,17.66,0,0,0,2.27-5.68A29.27,29.27,0,0,0,924.17,84.69Z" transform="translate(-6 -5.6)"/><rect class="cls-1" x="548.07" y="17.6" width="0.78" height="105.57"/><polygon class="cls-1" points="282.4 70.6 211.8 0 211.8 141.2 282.4 70.6"/><polygon class="cls-1" points="141.2 70.6 211.8 0 70.6 0 141.2 70.6"/><polygon class="cls-1" points="0 70.6 70.6 141.2 70.6 0 0 70.6"/><polygon class="cls-1" points="141.2 70.6 70.6 141.2 211.8 141.2 141.2 70.6"/></svg>